<svg xmlns="http://www.w3.org/2000/svg" xmlns:xlink="http://www.w3.org/1999/xlink" width="1440" zoomAndPan="magnify" viewBox="0 0 1080 959.999988" height="1280" preserveAspectRatio="xMidYMid meet" version="1.0"><defs><clipPath id="4baee736e1"><path d="M 55.191406 230 L 1024 230 L 1024 731 L 55.191406 731 Z M 55.191406 230 " clip-rule="nonzero"/></clipPath></defs><g clip-path="url(#4baee736e1)"><path fill="#385887" d="M 1023.578125 429.632812 C 999.738281 417.054688 974.582031 408.835938 948.105469 404.980469 C 932.128906 402.648438 913.867188 403.003906 898.042969 404.070312 C 848.589844 407.417969 798.273438 418.625 750.238281 430.699219 C 750.238281 430.699219 750.1875 430.699219 750.1875 430.699219 C 749.832031 430.75 749.527344 430.496094 749.476562 430.140625 C 743.289062 386.164062 737.660156 347.058594 729.136719 298.363281 C 720.414062 248.605469 675.21875 225.984375 628.503906 230.753906 C 587.21875 234.960938 544.308594 254.035156 508.292969 274.726562 C 456.609375 304.449219 397.671875 342.441406 335.078125 318.042969 C 334.824219 317.941406 334.570312 317.789062 334.371094 317.589844 C 334.066406 317.285156 333.710938 317.082031 333.304688 316.929688 C 333.152344 316.878906 333.050781 316.726562 333.050781 316.574219 C 333.101562 316.421875 333.253906 316.320312 333.40625 316.371094 C 390.671875 323.878906 439.109375 296.03125 486.6875 268.335938 C 486.738281 268.285156 486.789062 268.234375 486.839844 268.132812 C 486.890625 267.980469 486.789062 267.777344 486.585938 267.726562 C 469.289062 263.265625 451.890625 259.054688 434.445312 255.046875 C 404.164062 248.097656 371.648438 244.34375 342.28125 256.925781 C 321.636719 265.800781 308.601562 285.074219 304.039062 306.53125 C 300.4375 323.625 297.394531 350.710938 295.160156 372.875 C 290.089844 423.039062 285.167969 473.203125 280.351562 523.417969 C 280.300781 523.824219 280.503906 524.078125 280.910156 524.179688 C 287.097656 525.953125 294.753906 527.730469 303.886719 529.554688 C 348.824219 538.480469 394.777344 542.234375 439.871094 539.089844 C 482.882812 536.097656 525.03125 528.335938 566.320312 515.910156 C 568.046875 515.402344 571.59375 513.984375 573.015625 513.171875 C 626.324219 483.042969 682.625 460.269531 741.921875 444.75 C 816.683594 425.21875 898.042969 414.214844 975.140625 424.460938 C 981.480469 425.320312 987.71875 426.640625 993.753906 428.464844 C 993.855469 428.464844 993.957031 428.566406 993.90625 428.71875 C 993.90625 428.820312 993.804688 428.921875 993.652344 428.871094 C 891.195312 425.777344 788.433594 442.160156 692.363281 477.769531 C 613.542969 506.984375 546.996094 553.546875 479.789062 600.363281 C 429.726562 635.207031 371.648438 669.902344 315.09375 694.859375 C 307.285156 698.308594 307.03125 697.851562 314.382812 693.4375 C 357.042969 667.824219 399.546875 639.417969 441.847656 608.226562 C 442.101562 608.074219 442.050781 607.972656 441.746094 607.972656 C 416.386719 610.050781 391.027344 609.796875 365.714844 607.160156 C 331.375 603.609375 292.777344 593.972656 264.777344 572.667969 C 263.917969 572.007812 263.460938 570.996094 263.5625 569.929688 L 275.074219 448.246094 C 275.125 447.792969 274.921875 447.488281 274.414062 447.488281 C 248.292969 445.152344 226.179688 436.886719 202.238281 429.683594 C 176.980469 422.074219 148.421875 416.953125 122.402344 424.257812 C 86.1875 434.402344 65.949219 465.238281 58.949219 500.796875 C 56.515625 513.273438 55.347656 524.332031 55.550781 533.96875 C 57.222656 616.390625 106.375 694.148438 186.160156 721.4375 C 222.273438 733.8125 263.816406 731.277344 301.144531 724.9375 C 311.746094 723.109375 321.738281 720.574219 331.273438 717.226562 C 364.398438 705.609375 391.734375 696.125 413.34375 688.71875 C 500.078125 659.046875 588.03125 633.535156 677.25 612.179688 C 709.050781 604.574219 737.152344 596.761719 761.550781 588.695312 C 795.027344 577.640625 826.21875 561.660156 854.878906 541.070312 C 909.859375 501.554688 962.105469 460.878906 1023.578125 430.089844 C 1023.984375 430.039062 1023.984375 429.835938 1023.578125 429.632812 Z M 572.761719 339.652344 C 572 350.40625 563.328125 358.519531 553.386719 357.8125 C 543.445312 357.101562 535.988281 347.871094 536.75 337.117188 C 537.511719 326.363281 546.183594 318.246094 556.125 318.957031 C 566.015625 319.617188 573.472656 328.898438 572.761719 339.652344 Z M 629.011719 357.710938 C 618.96875 358.113281 610.449219 349.746094 610.042969 338.992188 C 609.585938 328.238281 617.398438 319.210938 627.492188 318.804688 C 637.535156 318.398438 646.054688 326.769531 646.460938 337.523438 C 646.867188 348.273438 639.054688 357.304688 629.011719 357.710938 Z M 629.011719 357.710938 " fill-opacity="1" fill-rule="nonzero"/></g><path fill="#385887" d="M 276.34375 568.660156 C 291 574.597656 305.914062 579.058594 321.128906 582 C 370.332031 591.488281 420.851562 590.777344 470.152344 582.710938 C 471.320312 582.507812 473.398438 581.695312 474.3125 580.988281 C 489.578125 569.117188 505.097656 557.503906 520.824219 546.242188 C 521.433594 545.785156 521.382812 545.632812 520.621094 545.785156 C 518.085938 546.242188 514.484375 546.953125 509.765625 547.96875 C 460.3125 558.71875 409.996094 561.105469 358.714844 555.117188 C 334.570312 552.277344 304.339844 545.886719 280.046875 533.460938 C 279.996094 533.410156 279.945312 533.410156 279.894531 533.410156 C 279.640625 533.359375 279.4375 533.5625 279.386719 533.816406 L 276.140625 568.40625 C 276.191406 568.558594 276.242188 568.660156 276.34375 568.660156 Z M 276.34375 568.660156 " fill-opacity="1" fill-rule="nonzero"/></svg>